<?xml version="1.0" encoding="UTF-8"?>
<svg xmlns="http://www.w3.org/2000/svg" xmlns:xlink="http://www.w3.org/1999/xlink" width="75px" height="75px" viewBox="0 0 75 75" version="1.1">
<g id="surface1">
<path style=" stroke:none;fill-rule:nonzero;fill:rgb(0%,0%,0%);fill-opacity:1;" d="M 30.3125 3.09375 C 20.78125 5.21875 12.96875 10.5 7.59375 18.5 C -1.8125 32.59375 0.0625 51.5 12.0625 63.5625 C 15.65625 67.1875 21.125 70.6875 25.25 72.03125 C 26.78125 72.53125 26.96875 72.53125 27.65625 72.0625 C 28.40625 71.5625 28.4375 71.4375 28.4375 67.84375 L 28.4375 64.15625 L 25.6875 64.3125 C 22.46875 64.46875 19.96875 63.90625 18.46875 62.625 C 17.9375 62.1875 16.90625 60.6875 16.1875 59.3125 C 15 57 14.125 55.9375 11.6875 53.78125 C 10.875 53.0625 10.84375 53.03125 11.40625 52.625 C 12.75 51.625 15.46875 52.59375 17.1875 54.65625 C 20.1875 58.3125 21.34375 59.28125 23.0625 59.65625 C 24.59375 59.96875 26 59.84375 28.125 59.21875 C 28.40625 59.125 28.78125 58.46875 28.96875 57.71875 C 29.15625 57 29.65625 55.90625 30.0625 55.3125 L 30.8125 54.21875 L 28.28125 53.71875 C 22.96875 52.625 19.6875 50.71875 17.53125 47.46875 C 15.53125 44.46875 14.875 41.875 14.84375 37.03125 C 14.84375 32.46875 15.34375 30.59375 17.3125 28.03125 C 18.1875 26.90625 18.28125 26.5625 18.03125 25.90625 C 17.5625 24.78125 17.6875 20.03125 18.1875 18.59375 C 18.59375 17.53125 18.8125 17.34375 19.65625 17.25 C 21.0625 17.09375 23.6875 18 26.34375 19.5 L 28.625 20.8125 L 30.625 20.34375 C 33.46875 19.6875 42 19.71875 44.5625 20.34375 L 46.5 20.84375 L 48.3125 19.75 C 50.71875 18.3125 53.78125 17.1875 55.3125 17.1875 C 56.53125 17.1875 56.53125 17.21875 57.03125 18.8125 C 57.5625 20.65625 57.65625 24 57.1875 25.59375 C 56.9375 26.53125 57 26.8125 57.6875 27.71875 C 61.09375 32.21875 61.46875 39.6875 58.59375 45.8125 C 56.65625 49.84375 52.5625 52.65625 47.0625 53.6875 L 44.4375 54.1875 L 45.40625 55.90625 L 46.40625 57.65625 L 46.5 64.625 L 46.625 71.59375 L 47.40625 72.09375 C 48.125 72.5625 48.28125 72.5625 49.78125 72.03125 C 52.28125 71.1875 56.5625 68.875 58.90625 67.09375 C 72.84375 56.65625 77.34375 37.9375 69.625 22.375 C 65.09375 13.21875 56.53125 6.1875 46.71875 3.5625 C 42.4375 2.4375 34.375 2.1875 30.3125 3.09375 Z M 30.3125 3.09375 "/>
</g>
</svg>
